<svg width="1091" height="84" viewBox="0 0 1091 84" fill="none" xmlns="http://www.w3.org/2000/svg">
<g filter="url(#filter0_d_47_385)">
<rect x="7" y="7" width="207" height="60" rx="10" fill="#FFA800"/>
</g>
<rect x="850" y="11" width="241" height="55" rx="27.5" fill="#FFA800"/>
<path d="M932.268 44.192C931.383 44.192 930.561 44.048 929.804 43.76C929.057 43.472 928.407 43.0667 927.852 42.544C927.308 42.0213 926.881 41.408 926.572 40.704C926.273 40 926.124 39.232 926.124 38.4C926.124 37.568 926.273 36.8 926.572 36.096C926.881 35.392 927.313 34.7787 927.868 34.256C928.423 33.7333 929.073 33.328 929.82 33.04C930.567 32.752 931.377 32.608 932.252 32.608C933.137 32.608 933.948 32.752 934.684 33.04C935.431 33.328 936.076 33.7333 936.62 34.256C937.175 34.7787 937.607 35.392 937.916 36.096C938.225 36.7893 938.38 37.5573 938.38 38.4C938.38 39.232 938.225 40.0053 937.916 40.72C937.607 41.424 937.175 42.0373 936.62 42.56C936.076 43.072 935.431 43.472 934.684 43.76C933.948 44.048 933.143 44.192 932.268 44.192ZM932.252 41.984C932.753 41.984 933.212 41.8987 933.628 41.728C934.055 41.5573 934.428 41.312 934.748 40.992C935.068 40.672 935.313 40.2933 935.484 39.856C935.665 39.4187 935.756 38.9333 935.756 38.4C935.756 37.8667 935.665 37.3813 935.484 36.944C935.313 36.5067 935.068 36.128 934.748 35.808C934.439 35.488 934.071 35.2427 933.644 35.072C933.217 34.9013 932.753 34.816 932.252 34.816C931.751 34.816 931.287 34.9013 930.86 35.072C930.444 35.2427 930.076 35.488 929.756 35.808C929.436 36.128 929.185 36.5067 929.004 36.944C928.833 37.3813 928.748 37.8667 928.748 38.4C928.748 38.9227 928.833 39.408 929.004 39.856C929.185 40.2933 929.431 40.672 929.74 40.992C930.06 41.312 930.433 41.5573 930.86 41.728C931.287 41.8987 931.751 41.984 932.252 41.984ZM940.152 44V35.392H942.536V37.824L942.2 37.12C942.456 36.512 942.867 36.0533 943.432 35.744C943.997 35.424 944.685 35.264 945.496 35.264V37.568C945.389 37.5573 945.293 37.552 945.208 37.552C945.123 37.5413 945.032 37.536 944.936 37.536C944.253 37.536 943.699 37.7333 943.272 38.128C942.856 38.512 942.648 39.1147 942.648 39.936V44H940.152ZM950.614 44.128C949.803 44.128 949.072 43.9467 948.422 43.584C947.771 43.2107 947.254 42.6933 946.87 42.032C946.496 41.3707 946.31 40.592 946.31 39.696C946.31 38.7893 946.496 38.0053 946.87 37.344C947.254 36.6827 947.771 36.1707 948.422 35.808C949.072 35.4453 949.803 35.264 950.614 35.264C951.339 35.264 951.974 35.424 952.518 35.744C953.062 36.064 953.483 36.5493 953.782 37.2C954.08 37.8507 954.23 38.6827 954.23 39.696C954.23 40.6987 954.086 41.5307 953.798 42.192C953.51 42.8427 953.094 43.328 952.55 43.648C952.016 43.968 951.371 44.128 950.614 44.128ZM951.046 42.08C951.451 42.08 951.819 41.984 952.15 41.792C952.48 41.6 952.742 41.328 952.934 40.976C953.136 40.6133 953.238 40.1867 953.238 39.696C953.238 39.1947 953.136 38.768 952.934 38.416C952.742 38.064 952.48 37.792 952.15 37.6C951.819 37.408 951.451 37.312 951.046 37.312C950.63 37.312 950.256 37.408 949.926 37.6C949.595 37.792 949.328 38.064 949.126 38.416C948.934 38.768 948.838 39.1947 948.838 39.696C948.838 40.1867 948.934 40.6133 949.126 40.976C949.328 41.328 949.595 41.6 949.926 41.792C950.256 41.984 950.63 42.08 951.046 42.08ZM953.302 44V42.24L953.35 39.68L953.19 37.136V32.128H955.686V44H953.302ZM962.268 44.128C961.286 44.128 960.422 43.936 959.676 43.552C958.94 43.168 958.369 42.6453 957.964 41.984C957.558 41.312 957.356 40.5493 957.356 39.696C957.356 38.832 957.553 38.0693 957.948 37.408C958.353 36.736 958.902 36.2133 959.596 35.84C960.289 35.456 961.073 35.264 961.948 35.264C962.79 35.264 963.548 35.4453 964.22 35.808C964.902 36.16 965.441 36.672 965.836 37.344C966.23 38.0053 966.428 38.8 966.428 39.728C966.428 39.824 966.422 39.936 966.412 40.064C966.401 40.1813 966.39 40.2933 966.38 40.4H959.388V38.944H965.068L964.108 39.376C964.108 38.928 964.017 38.5387 963.836 38.208C963.654 37.8773 963.404 37.6213 963.084 37.44C962.764 37.248 962.39 37.152 961.964 37.152C961.537 37.152 961.158 37.248 960.828 37.44C960.508 37.6213 960.257 37.8827 960.076 38.224C959.894 38.5547 959.804 38.9493 959.804 39.408V39.792C959.804 40.2613 959.905 40.6773 960.108 41.04C960.321 41.392 960.614 41.664 960.988 41.856C961.372 42.0373 961.82 42.128 962.332 42.128C962.79 42.128 963.19 42.0587 963.532 41.92C963.884 41.7813 964.204 41.5733 964.492 41.296L965.82 42.736C965.425 43.184 964.929 43.5307 964.332 43.776C963.734 44.0107 963.046 44.128 962.268 44.128ZM968.09 44V35.392H970.474V37.824L970.138 37.12C970.394 36.512 970.804 36.0533 971.37 35.744C971.935 35.424 972.623 35.264 973.434 35.264V37.568C973.327 37.5573 973.231 37.552 973.146 37.552C973.06 37.5413 972.97 37.536 972.874 37.536C972.191 37.536 971.636 37.7333 971.21 38.128C970.794 38.512 970.586 39.1147 970.586 39.936V44H968.09ZM984.743 35.264C985.426 35.264 986.034 35.4027 986.567 35.68C987.111 35.9467 987.538 36.3627 987.847 36.928C988.157 37.4827 988.311 38.1973 988.311 39.072V44H985.815V39.456C985.815 38.7627 985.661 38.2507 985.351 37.92C985.053 37.5893 984.626 37.424 984.071 37.424C983.677 37.424 983.319 37.5093 982.999 37.68C982.69 37.84 982.445 38.0907 982.263 38.432C982.093 38.7733 982.007 39.2107 982.007 39.744V44H979.511V35.392H981.895V37.776L981.447 37.056C981.757 36.48 982.199 36.0373 982.775 35.728C983.351 35.4187 984.007 35.264 984.743 35.264ZM994.732 44.128C993.815 44.128 992.999 43.936 992.284 43.552C991.58 43.168 991.02 42.6453 990.604 41.984C990.199 41.312 989.996 40.5493 989.996 39.696C989.996 38.832 990.199 38.0693 990.604 37.408C991.02 36.736 991.58 36.2133 992.284 35.84C992.999 35.456 993.815 35.264 994.732 35.264C995.639 35.264 996.45 35.456 997.164 35.84C997.879 36.2133 998.439 36.7307 998.844 37.392C999.25 38.0533 999.452 38.8213 999.452 39.696C999.452 40.5493 999.25 41.312 998.844 41.984C998.439 42.6453 997.879 43.168 997.164 43.552C996.45 43.936 995.639 44.128 994.732 44.128ZM994.732 42.08C995.148 42.08 995.522 41.984 995.852 41.792C996.183 41.6 996.444 41.328 996.636 40.976C996.828 40.6133 996.924 40.1867 996.924 39.696C996.924 39.1947 996.828 38.768 996.636 38.416C996.444 38.064 996.183 37.792 995.852 37.6C995.522 37.408 995.148 37.312 994.732 37.312C994.316 37.312 993.943 37.408 993.612 37.6C993.282 37.792 993.015 38.064 992.812 38.416C992.62 38.768 992.524 39.1947 992.524 39.696C992.524 40.1867 992.62 40.6133 992.812 40.976C993.015 41.328 993.282 41.6 993.612 41.792C993.943 41.984 994.316 42.08 994.732 42.08ZM1002.85 44L999.75 35.392H1002.1L1004.68 42.8H1003.56L1006.25 35.392H1008.36L1010.97 42.8H1009.85L1012.5 35.392H1014.71L1011.59 44H1009.17L1006.89 37.648H1007.62L1005.25 44H1002.85Z" fill="white"/>
<path d="M235 31V18.28H230.08V17H241.4V18.28H236.48V31H235ZM246.651 31.1C245.637 31.1 244.724 30.8733 243.911 30.42C243.111 29.9533 242.477 29.32 242.011 28.52C241.544 27.7067 241.311 26.78 241.311 25.74C241.311 24.6867 241.544 23.76 242.011 22.96C242.477 22.16 243.111 21.5333 243.911 21.08C244.711 20.6267 245.624 20.4 246.651 20.4C247.691 20.4 248.611 20.6267 249.411 21.08C250.224 21.5333 250.857 22.16 251.311 22.96C251.777 23.76 252.011 24.6867 252.011 25.74C252.011 26.78 251.777 27.7067 251.311 28.52C250.857 29.32 250.224 29.9533 249.411 30.42C248.597 30.8733 247.677 31.1 246.651 31.1ZM246.651 29.84C247.411 29.84 248.084 29.6733 248.671 29.34C249.257 28.9933 249.717 28.5133 250.051 27.9C250.397 27.2733 250.571 26.5533 250.571 25.74C250.571 24.9133 250.397 24.1933 250.051 23.58C249.717 22.9667 249.257 22.4933 248.671 22.16C248.084 21.8133 247.417 21.64 246.671 21.64C245.924 21.64 245.257 21.8133 244.671 22.16C244.084 22.4933 243.617 22.9667 243.271 23.58C242.924 24.1933 242.751 24.9133 242.751 25.74C242.751 26.5533 242.924 27.2733 243.271 27.9C243.617 28.5133 244.084 28.9933 244.671 29.34C245.257 29.6733 245.917 29.84 246.651 29.84ZM258.23 31.1C257.243 31.1 256.483 30.8333 255.95 30.3C255.416 29.7667 255.15 29.0133 255.15 28.04V18.18H256.57V27.96C256.57 28.5733 256.723 29.0467 257.03 29.38C257.35 29.7133 257.803 29.88 258.39 29.88C259.016 29.88 259.536 29.7 259.95 29.34L260.45 30.36C260.17 30.6133 259.83 30.8 259.43 30.92C259.043 31.04 258.643 31.1 258.23 31.1ZM253.27 21.68V20.5H259.77V21.68H253.27ZM269.615 31V28.68L269.555 28.3V24.42C269.555 23.5267 269.301 22.84 268.795 22.36C268.301 21.88 267.561 21.64 266.575 21.64C265.895 21.64 265.248 21.7533 264.635 21.98C264.021 22.2067 263.501 22.5067 263.075 22.88L262.435 21.82C262.968 21.3667 263.608 21.02 264.355 20.78C265.101 20.5267 265.888 20.4 266.715 20.4C268.075 20.4 269.121 20.74 269.855 21.42C270.601 22.0867 270.975 23.1067 270.975 24.48V31H269.615ZM265.995 31.1C265.208 31.1 264.521 30.9733 263.935 30.72C263.361 30.4533 262.921 30.0933 262.615 29.64C262.308 29.1733 262.155 28.64 262.155 28.04C262.155 27.4933 262.281 27 262.535 26.56C262.801 26.1067 263.228 25.7467 263.815 25.48C264.415 25.2 265.215 25.06 266.215 25.06H269.835V26.12H266.255C265.241 26.12 264.535 26.3 264.135 26.66C263.748 27.02 263.555 27.4667 263.555 28C263.555 28.6 263.788 29.08 264.255 29.44C264.721 29.8 265.375 29.98 266.215 29.98C267.015 29.98 267.701 29.8 268.275 29.44C268.861 29.0667 269.288 28.5333 269.555 27.84L269.875 28.82C269.608 29.5133 269.141 30.0667 268.475 30.48C267.821 30.8933 266.995 31.1 265.995 31.1ZM274.832 31V16.16H276.252V31H274.832ZM289.717 31.1C288.704 31.1 287.79 30.8733 286.977 30.42C286.177 29.9533 285.544 29.32 285.077 28.52C284.61 27.7067 284.377 26.78 284.377 25.74C284.377 24.6867 284.61 23.76 285.077 22.96C285.544 22.16 286.177 21.5333 286.977 21.08C287.777 20.6267 288.69 20.4 289.717 20.4C290.757 20.4 291.677 20.6267 292.477 21.08C293.29 21.5333 293.924 22.16 294.377 22.96C294.844 23.76 295.077 24.6867 295.077 25.74C295.077 26.78 294.844 27.7067 294.377 28.52C293.924 29.32 293.29 29.9533 292.477 30.42C291.664 30.8733 290.744 31.1 289.717 31.1ZM289.717 29.84C290.477 29.84 291.15 29.6733 291.737 29.34C292.324 28.9933 292.784 28.5133 293.117 27.9C293.464 27.2733 293.637 26.5533 293.637 25.74C293.637 24.9133 293.464 24.1933 293.117 23.58C292.784 22.9667 292.324 22.4933 291.737 22.16C291.15 21.8133 290.484 21.64 289.737 21.64C288.99 21.64 288.324 21.8133 287.737 22.16C287.15 22.4933 286.684 22.9667 286.337 23.58C285.99 24.1933 285.817 24.9133 285.817 25.74C285.817 26.5533 285.99 27.2733 286.337 27.9C286.684 28.5133 287.15 28.9933 287.737 29.34C288.324 29.6733 288.984 29.84 289.717 29.84ZM303.336 20.4C304.189 20.4 304.936 20.5667 305.576 20.9C306.229 21.22 306.736 21.7133 307.096 22.38C307.469 23.0467 307.656 23.8867 307.656 24.9V31H306.236V25.04C306.236 23.9333 305.956 23.1 305.396 22.54C304.849 21.9667 304.076 21.68 303.076 21.68C302.329 21.68 301.676 21.8333 301.116 22.14C300.569 22.4333 300.143 22.8667 299.836 23.44C299.543 24 299.396 24.68 299.396 25.48V31H297.976V20.5H299.336V23.38L299.116 22.84C299.449 22.08 299.983 21.4867 300.716 21.06C301.449 20.62 302.323 20.4 303.336 20.4ZM235 55V42.28H230.08V41H241.4V42.28H236.48V55H235ZM247.531 55.1C246.638 55.1 245.858 54.9333 245.191 54.6C244.524 54.2667 244.004 53.7667 243.631 53.1C243.271 52.4333 243.091 51.6 243.091 50.6V44.5H244.511V50.44C244.511 51.56 244.784 52.4067 245.331 52.98C245.891 53.54 246.671 53.82 247.671 53.82C248.404 53.82 249.038 53.6733 249.571 53.38C250.118 53.0733 250.531 52.6333 250.811 52.06C251.104 51.4867 251.251 50.8 251.251 50V44.5H252.671V55H251.311V52.12L251.531 52.64C251.198 53.4133 250.678 54.02 249.971 54.46C249.278 54.8867 248.464 55.1 247.531 55.1ZM261.088 55.1C259.995 55.1 259.035 54.8733 258.208 54.42C257.382 53.9533 256.735 53.32 256.268 52.52C255.802 51.7067 255.568 50.78 255.568 49.74C255.568 48.7 255.788 47.78 256.228 46.98C256.682 46.18 257.295 45.5533 258.068 45.1C258.855 44.6333 259.735 44.4 260.708 44.4C261.695 44.4 262.568 44.6267 263.328 45.08C264.102 45.52 264.708 46.1467 265.148 46.96C265.588 47.76 265.808 48.6867 265.808 49.74C265.808 49.8067 265.802 49.88 265.788 49.96C265.788 50.0267 265.788 50.1 265.788 50.18H256.648V49.12H265.028L264.468 49.54C264.468 48.78 264.302 48.1067 263.968 47.52C263.648 46.92 263.208 46.4533 262.648 46.12C262.088 45.7867 261.442 45.62 260.708 45.62C259.988 45.62 259.342 45.7867 258.768 46.12C258.195 46.4533 257.748 46.92 257.428 47.52C257.108 48.12 256.948 48.8067 256.948 49.58V49.8C256.948 50.6 257.122 51.3067 257.468 51.92C257.828 52.52 258.322 52.9933 258.948 53.34C259.588 53.6733 260.315 53.84 261.128 53.84C261.768 53.84 262.362 53.7267 262.908 53.5C263.468 53.2733 263.948 52.9267 264.348 52.46L265.148 53.38C264.682 53.94 264.095 54.3667 263.388 54.66C262.695 54.9533 261.928 55.1 261.088 55.1ZM271.519 55.1C270.652 55.1 269.832 54.98 269.059 54.74C268.285 54.4867 267.679 54.1733 267.239 53.8L267.879 52.68C268.305 53 268.852 53.28 269.519 53.52C270.185 53.7467 270.885 53.86 271.619 53.86C272.619 53.86 273.339 53.7067 273.779 53.4C274.219 53.08 274.439 52.66 274.439 52.14C274.439 51.7533 274.312 51.4533 274.059 51.24C273.819 51.0133 273.499 50.8467 273.099 50.74C272.699 50.62 272.252 50.52 271.759 50.44C271.265 50.36 270.772 50.2667 270.279 50.16C269.799 50.0533 269.359 49.9 268.959 49.7C268.559 49.4867 268.232 49.2 267.979 48.84C267.739 48.48 267.619 48 267.619 47.4C267.619 46.8267 267.779 46.3133 268.099 45.86C268.419 45.4067 268.885 45.0533 269.499 44.8C270.125 44.5333 270.885 44.4 271.779 44.4C272.459 44.4 273.139 44.4933 273.819 44.68C274.499 44.8533 275.059 45.0867 275.499 45.38L274.879 46.52C274.412 46.2 273.912 45.9733 273.379 45.84C272.845 45.6933 272.312 45.62 271.779 45.62C270.832 45.62 270.132 45.7867 269.679 46.12C269.239 46.44 269.019 46.8533 269.019 47.36C269.019 47.76 269.139 48.0733 269.379 48.3C269.632 48.5267 269.959 48.7067 270.359 48.84C270.772 48.96 271.219 49.06 271.699 49.14C272.192 49.22 272.679 49.32 273.159 49.44C273.652 49.5467 274.099 49.7 274.499 49.9C274.912 50.0867 275.239 50.36 275.479 50.72C275.732 51.0667 275.859 51.5267 275.859 52.1C275.859 52.7133 275.685 53.2467 275.339 53.7C275.005 54.14 274.512 54.4867 273.859 54.74C273.219 54.98 272.439 55.1 271.519 55.1ZM282.644 55.1C281.644 55.1 280.744 54.8733 279.944 54.42C279.158 53.9667 278.538 53.34 278.084 52.54C277.631 51.7267 277.404 50.7933 277.404 49.74C277.404 48.6733 277.631 47.74 278.084 46.94C278.538 46.14 279.158 45.52 279.944 45.08C280.744 44.6267 281.644 44.4 282.644 44.4C283.564 44.4 284.384 44.6067 285.104 45.02C285.838 45.4333 286.418 46.04 286.844 46.84C287.284 47.6267 287.504 48.5933 287.504 49.74C287.504 50.8733 287.291 51.84 286.864 52.64C286.438 53.44 285.858 54.0533 285.124 54.48C284.404 54.8933 283.578 55.1 282.644 55.1ZM282.744 53.84C283.491 53.84 284.158 53.6733 284.744 53.34C285.344 52.9933 285.811 52.5133 286.144 51.9C286.491 51.2733 286.664 50.5533 286.664 49.74C286.664 48.9133 286.491 48.1933 286.144 47.58C285.811 46.9667 285.344 46.4933 284.744 46.16C284.158 45.8133 283.491 45.64 282.744 45.64C282.011 45.64 281.351 45.8133 280.764 46.16C280.178 46.4933 279.711 46.9667 279.364 47.58C279.018 48.1933 278.844 48.9133 278.844 49.74C278.844 50.5533 279.018 51.2733 279.364 51.9C279.711 52.5133 280.178 52.9933 280.764 53.34C281.351 53.6733 282.011 53.84 282.744 53.84ZM286.704 55V51.84L286.844 49.72L286.644 47.6V40.16H288.064V55H286.704ZM298.599 55V52.68L298.539 52.3V48.42C298.539 47.5267 298.286 46.84 297.779 46.36C297.286 45.88 296.546 45.64 295.559 45.64C294.879 45.64 294.232 45.7533 293.619 45.98C293.006 46.2067 292.486 46.5067 292.059 46.88L291.419 45.82C291.952 45.3667 292.592 45.02 293.339 44.78C294.086 44.5267 294.872 44.4 295.699 44.4C297.059 44.4 298.106 44.74 298.839 45.42C299.586 46.0867 299.959 47.1067 299.959 48.48V55H298.599ZM294.979 55.1C294.192 55.1 293.506 54.9733 292.919 54.72C292.346 54.4533 291.906 54.0933 291.599 53.64C291.292 53.1733 291.139 52.64 291.139 52.04C291.139 51.4933 291.266 51 291.519 50.56C291.786 50.1067 292.212 49.7467 292.799 49.48C293.399 49.2 294.199 49.06 295.199 49.06H298.819V50.12H295.239C294.226 50.12 293.519 50.3 293.119 50.66C292.732 51.02 292.539 51.4667 292.539 52C292.539 52.6 292.772 53.08 293.239 53.44C293.706 53.8 294.359 53.98 295.199 53.98C295.999 53.98 296.686 53.8 297.259 53.44C297.846 53.0667 298.272 52.5333 298.539 51.84L298.859 52.82C298.592 53.5133 298.126 54.0667 297.459 54.48C296.806 54.8933 295.979 55.1 294.979 55.1ZM303.701 58.98C303.207 58.98 302.734 58.9 302.281 58.74C301.841 58.58 301.461 58.34 301.141 58.02L301.801 56.96C302.067 57.2133 302.354 57.4067 302.661 57.54C302.981 57.6867 303.334 57.76 303.721 57.76C304.187 57.76 304.587 57.6267 304.921 57.36C305.267 57.1067 305.594 56.6533 305.901 56L306.581 54.46L306.741 54.24L311.061 44.5H312.461L307.201 56.26C306.907 56.94 306.581 57.48 306.221 57.88C305.874 58.28 305.494 58.56 305.081 58.72C304.667 58.8933 304.207 58.98 303.701 58.98ZM306.501 55.3L301.661 44.5H303.141L307.421 54.14L306.501 55.3ZM314.757 46.58C314.463 46.58 314.21 46.4733 313.997 46.26C313.797 46.0467 313.697 45.7867 313.697 45.48C313.697 45.16 313.797 44.9 313.997 44.7C314.21 44.5 314.463 44.4 314.757 44.4C315.05 44.4 315.297 44.5 315.497 44.7C315.71 44.9 315.817 45.16 315.817 45.48C315.817 45.7867 315.71 46.0467 315.497 46.26C315.297 46.4733 315.05 46.58 314.757 46.58ZM314.757 55.1C314.463 55.1 314.21 54.9933 313.997 54.78C313.797 54.5667 313.697 54.3067 313.697 54C313.697 53.68 313.797 53.42 313.997 53.22C314.21 53.02 314.463 52.92 314.757 52.92C315.05 52.92 315.297 53.02 315.497 53.22C315.71 53.42 315.817 53.68 315.817 54C315.817 54.3067 315.71 54.5667 315.497 54.78C315.297 54.9933 315.05 55.1 314.757 55.1ZM233.48 79V65.6L234.12 66.28H230.18V65H234.92V79H233.48ZM238.027 75.32V74.28L245.447 65H247.047L239.687 74.28L238.907 74.04H250.167V75.32H238.027ZM245.927 79V75.32L245.967 74.04V70.8H247.367V79H245.927ZM255.376 79.12C254.363 79.12 253.403 78.96 252.496 78.64C251.603 78.3067 250.883 77.8667 250.336 77.32L251.036 76.18C251.49 76.6467 252.096 77.0333 252.856 77.34C253.63 77.6467 254.47 77.8 255.376 77.8C256.536 77.8 257.423 77.5467 258.036 77.04C258.663 76.5333 258.976 75.8533 258.976 75C258.976 74.1467 258.67 73.4667 258.056 72.96C257.456 72.4533 256.503 72.2 255.196 72.2H254.196V71.14L258.516 65.72L258.716 66.28H250.916V65H259.916V66.02L255.596 71.44L254.896 70.98H255.436C257.116 70.98 258.37 71.3533 259.196 72.1C260.036 72.8467 260.456 73.8067 260.456 74.98C260.456 75.7667 260.27 76.4733 259.896 77.1C259.523 77.7267 258.956 78.22 258.196 78.58C257.45 78.94 256.51 79.12 255.376 79.12ZM266.71 79.12C265.71 79.12 264.757 78.96 263.85 78.64C262.943 78.3067 262.223 77.8667 261.69 77.32L262.39 76.18C262.83 76.6467 263.43 77.0333 264.19 77.34C264.963 77.6467 265.797 77.8 266.69 77.8C267.877 77.8 268.777 77.54 269.39 77.02C270.017 76.4867 270.33 75.7933 270.33 74.94C270.33 74.34 270.183 73.8267 269.89 73.4C269.61 72.96 269.13 72.62 268.45 72.38C267.77 72.14 266.837 72.02 265.65 72.02H262.67L263.39 65H271.05V66.28H263.97L264.71 65.58L264.09 71.46L263.35 70.74H265.97C267.383 70.74 268.517 70.9133 269.37 71.26C270.223 71.6067 270.837 72.0933 271.21 72.72C271.597 73.3333 271.79 74.0533 271.79 74.88C271.79 75.6667 271.603 76.3867 271.23 77.04C270.857 77.68 270.297 78.1867 269.55 78.56C268.803 78.9333 267.857 79.12 266.71 79.12ZM280.913 76.28L280.953 74.46L287.493 68.5H289.233L284.613 72.92L283.813 73.6L280.913 76.28ZM279.793 79V64.16H281.213V79H279.793ZM287.933 79L283.553 73.54L284.473 72.44L289.673 79H287.933ZM295.754 79.1C294.714 79.1 293.781 78.8733 292.954 78.42C292.141 77.9533 291.501 77.32 291.034 76.52C290.567 75.7067 290.334 74.78 290.334 73.74C290.334 72.6867 290.567 71.76 291.034 70.96C291.501 70.16 292.141 69.5333 292.954 69.08C293.781 68.6267 294.714 68.4 295.754 68.4C296.647 68.4 297.454 68.5733 298.174 68.92C298.894 69.2667 299.461 69.7867 299.874 70.48L298.814 71.2C298.454 70.6667 298.007 70.2733 297.474 70.02C296.941 69.7667 296.361 69.64 295.734 69.64C294.987 69.64 294.314 69.8133 293.714 70.16C293.114 70.4933 292.641 70.9667 292.294 71.58C291.947 72.1933 291.774 72.9133 291.774 73.74C291.774 74.5667 291.947 75.2867 292.294 75.9C292.641 76.5133 293.114 76.9933 293.714 77.34C294.314 77.6733 294.987 77.84 295.734 77.84C296.361 77.84 296.941 77.7133 297.474 77.46C298.007 77.2067 298.454 76.82 298.814 76.3L299.874 77.02C299.461 77.7 298.894 78.22 298.174 78.58C297.454 78.9267 296.647 79.1 295.754 79.1ZM309.244 79V76.68L309.184 76.3V72.42C309.184 71.5267 308.93 70.84 308.424 70.36C307.93 69.88 307.19 69.64 306.204 69.64C305.524 69.64 304.877 69.7533 304.264 69.98C303.65 70.2067 303.13 70.5067 302.704 70.88L302.064 69.82C302.597 69.3667 303.237 69.02 303.984 68.78C304.73 68.5267 305.517 68.4 306.344 68.4C307.704 68.4 308.75 68.74 309.484 69.42C310.23 70.0867 310.604 71.1067 310.604 72.48V79H309.244ZM305.624 79.1C304.837 79.1 304.15 78.9733 303.564 78.72C302.99 78.4533 302.55 78.0933 302.244 77.64C301.937 77.1733 301.784 76.64 301.784 76.04C301.784 75.4933 301.91 75 302.164 74.56C302.43 74.1067 302.857 73.7467 303.444 73.48C304.044 73.2 304.844 73.06 305.844 73.06H309.464V74.12H305.884C304.87 74.12 304.164 74.3 303.764 74.66C303.377 75.02 303.184 75.4667 303.184 76C303.184 76.6 303.417 77.08 303.884 77.44C304.35 77.8 305.004 77.98 305.844 77.98C306.644 77.98 307.33 77.8 307.904 77.44C308.49 77.0667 308.917 76.5333 309.184 75.84L309.504 76.82C309.237 77.5133 308.77 78.0667 308.104 78.48C307.45 78.8933 306.624 79.1 305.624 79.1ZM314.46 79V64.16H315.88V79H314.46Z" fill="black"/>
<path d="M443.64 39L450.738 22.698L452.116 24.882H442.886L444.992 22.516V27.69H440.598V20.8H455.678V24.024L449.256 39H443.64ZM460.218 39V22.646L462.428 24.778H456.838V20.8H465.366V39H460.218ZM441.68 58V46.8H446.048C447.029 46.8 447.867 46.9547 448.56 47.264C449.253 47.5733 449.787 48.0213 450.16 48.608C450.533 49.1947 450.72 49.8933 450.72 50.704C450.72 51.5147 450.533 52.2133 450.16 52.8C449.787 53.376 449.253 53.824 448.56 54.144C447.867 54.4533 447.029 54.608 446.048 54.608H442.56L443.28 53.856V58H441.68ZM443.28 54.016L442.56 53.216H446C447.024 53.216 447.797 52.9973 448.32 52.56C448.853 52.1227 449.12 51.504 449.12 50.704C449.12 49.904 448.853 49.2853 448.32 48.848C447.797 48.4107 447.024 48.192 446 48.192H442.56L443.28 47.392V54.016ZM452.69 58V49.52H454.162V51.824L454.018 51.248C454.253 50.6613 454.648 50.2133 455.202 49.904C455.757 49.5947 456.44 49.44 457.25 49.44V50.928C457.186 50.9173 457.122 50.912 457.058 50.912C457.005 50.912 456.952 50.912 456.898 50.912C456.077 50.912 455.426 51.1573 454.946 51.648C454.466 52.1387 454.226 52.848 454.226 53.776V58H452.69ZM462.697 58.096C461.844 58.096 461.087 57.9093 460.425 57.536C459.764 57.1627 459.241 56.6507 458.857 56C458.473 55.3387 458.281 54.592 458.281 53.76C458.281 52.9173 458.473 52.1707 458.857 51.52C459.241 50.8693 459.764 50.3627 460.425 50C461.087 49.6267 461.844 49.44 462.697 49.44C463.54 49.44 464.292 49.6267 464.953 50C465.625 50.3627 466.148 50.8693 466.521 51.52C466.905 52.16 467.097 52.9067 467.097 53.76C467.097 54.6027 466.905 55.3493 466.521 56C466.148 56.6507 465.625 57.1627 464.953 57.536C464.292 57.9093 463.54 58.096 462.697 58.096ZM462.697 56.752C463.241 56.752 463.727 56.6293 464.153 56.384C464.591 56.1387 464.932 55.792 465.177 55.344C465.423 54.8853 465.545 54.3573 465.545 53.76C465.545 53.152 465.423 52.6293 465.177 52.192C464.932 51.744 464.591 51.3973 464.153 51.152C463.727 50.9067 463.241 50.784 462.697 50.784C462.153 50.784 461.668 50.9067 461.241 51.152C460.815 51.3973 460.473 51.744 460.217 52.192C459.961 52.6293 459.833 53.152 459.833 53.76C459.833 54.3573 459.961 54.8853 460.217 55.344C460.473 55.792 460.815 56.1387 461.241 56.384C461.668 56.6293 462.153 56.752 462.697 56.752ZM472.134 58.096C471.28 58.096 470.619 57.8667 470.15 57.408C469.68 56.9493 469.446 56.2933 469.446 55.44V47.664H470.982V55.376C470.982 55.8347 471.094 56.1867 471.318 56.432C471.552 56.6773 471.883 56.8 472.31 56.8C472.79 56.8 473.19 56.6667 473.51 56.4L473.99 57.504C473.755 57.7067 473.472 57.856 473.142 57.952C472.822 58.048 472.486 58.096 472.134 58.096ZM468.006 50.784V49.52H473.414V50.784H468.006ZM479.341 58.096C478.435 58.096 477.635 57.9093 476.941 57.536C476.259 57.1627 475.725 56.6507 475.341 56C474.968 55.3493 474.781 54.6027 474.781 53.76C474.781 52.9173 474.963 52.1707 475.325 51.52C475.699 50.8693 476.205 50.3627 476.845 50C477.496 49.6267 478.227 49.44 479.037 49.44C479.859 49.44 480.584 49.6213 481.213 49.984C481.843 50.3467 482.333 50.8587 482.685 51.52C483.048 52.1707 483.229 52.9333 483.229 53.808C483.229 53.872 483.224 53.9467 483.213 54.032C483.213 54.1173 483.208 54.1973 483.197 54.272H475.981V53.168H482.397L481.773 53.552C481.784 53.008 481.672 52.5227 481.437 52.096C481.203 51.6693 480.877 51.3387 480.461 51.104C480.056 50.8587 479.581 50.736 479.037 50.736C478.504 50.736 478.029 50.8587 477.613 51.104C477.197 51.3387 476.872 51.6747 476.637 52.112C476.403 52.5387 476.285 53.0293 476.285 53.584V53.84C476.285 54.4053 476.413 54.912 476.669 55.36C476.936 55.7973 477.304 56.1387 477.773 56.384C478.243 56.6293 478.781 56.752 479.389 56.752C479.891 56.752 480.344 56.6667 480.749 56.496C481.165 56.3253 481.528 56.0693 481.837 55.728L482.685 56.72C482.301 57.168 481.821 57.5093 481.245 57.744C480.68 57.9787 480.045 58.096 479.341 58.096ZM485.362 58V49.52H486.898V58H485.362ZM486.13 47.888C485.832 47.888 485.581 47.792 485.378 47.6C485.186 47.408 485.09 47.1733 485.09 46.896C485.09 46.608 485.186 46.368 485.378 46.176C485.581 45.984 485.832 45.888 486.13 45.888C486.429 45.888 486.674 45.984 486.866 46.176C487.069 46.3573 487.17 46.5867 487.17 46.864C487.17 47.152 487.074 47.3973 486.882 47.6C486.69 47.792 486.44 47.888 486.13 47.888ZM494.359 49.44C495.052 49.44 495.66 49.5733 496.183 49.84C496.716 50.1067 497.132 50.512 497.431 51.056C497.73 51.6 497.879 52.288 497.879 53.12V58H496.343V53.296C496.343 52.4747 496.14 51.856 495.735 51.44C495.34 51.024 494.78 50.816 494.055 50.816C493.511 50.816 493.036 50.9227 492.631 51.136C492.226 51.3493 491.911 51.664 491.687 52.08C491.474 52.496 491.367 53.0133 491.367 53.632V58H489.831V49.52H491.303V51.808L491.063 51.2C491.34 50.6453 491.767 50.2133 492.343 49.904C492.919 49.5947 493.591 49.44 494.359 49.44Z" fill="black"/>
<path d="M572.64 39L579.738 22.698L581.116 24.882H571.886L573.992 22.516V27.69H569.598V20.8H584.678V24.024L578.256 39H572.64ZM593.838 39.364C592.278 39.364 590.891 38.9913 589.678 38.246C588.482 37.5007 587.537 36.426 586.844 35.022C586.151 33.618 585.804 31.9107 585.804 29.9C585.804 27.8893 586.151 26.182 586.844 24.778C587.537 23.374 588.482 22.2993 589.678 21.554C590.891 20.8087 592.278 20.436 593.838 20.436C595.381 20.436 596.75 20.8087 597.946 21.554C599.159 22.2993 600.113 23.374 600.806 24.778C601.499 26.182 601.846 27.8893 601.846 29.9C601.846 31.9107 601.499 33.618 600.806 35.022C600.113 36.426 599.159 37.5007 597.946 38.246C596.75 38.9913 595.381 39.364 593.838 39.364ZM593.838 35.152C594.393 35.152 594.878 34.9787 595.294 34.632C595.727 34.2853 596.065 33.7307 596.308 32.968C596.551 32.188 596.672 31.1653 596.672 29.9C596.672 28.6173 596.551 27.5947 596.308 26.832C596.065 26.0693 595.727 25.5147 595.294 25.168C594.878 24.8213 594.393 24.648 593.838 24.648C593.283 24.648 592.789 24.8213 592.356 25.168C591.94 25.5147 591.602 26.0693 591.342 26.832C591.099 27.5947 590.978 28.6173 590.978 29.9C590.978 31.1653 591.099 32.188 591.342 32.968C591.602 33.7307 591.94 34.2853 592.356 34.632C592.789 34.9787 593.283 35.152 593.838 35.152ZM572.12 52.096H577.896V53.472H572.12V52.096ZM572.28 58H570.68V46.8H578.584V48.192H572.28V58ZM585.564 58V56.208L585.484 55.872V52.816C585.484 52.1653 585.292 51.664 584.908 51.312C584.534 50.9493 583.969 50.768 583.212 50.768C582.71 50.768 582.22 50.8533 581.74 51.024C581.26 51.184 580.854 51.4027 580.524 51.68L579.884 50.528C580.321 50.176 580.844 49.9093 581.452 49.728C582.07 49.536 582.716 49.44 583.388 49.44C584.55 49.44 585.446 49.7227 586.076 50.288C586.705 50.8533 587.02 51.7173 587.02 52.88V58H585.564ZM582.78 58.096C582.15 58.096 581.596 57.9893 581.116 57.776C580.646 57.5627 580.284 57.2693 580.028 56.896C579.772 56.512 579.644 56.08 579.644 55.6C579.644 55.1413 579.75 54.7253 579.964 54.352C580.188 53.9787 580.545 53.68 581.036 53.456C581.537 53.232 582.209 53.12 583.052 53.12H585.74V54.224H583.116C582.348 54.224 581.83 54.352 581.564 54.608C581.297 54.864 581.164 55.1733 581.164 55.536C581.164 55.952 581.329 56.288 581.66 56.544C581.99 56.7893 582.449 56.912 583.036 56.912C583.612 56.912 584.113 56.784 584.54 56.528C584.977 56.272 585.292 55.8987 585.484 55.408L585.788 56.464C585.585 56.9653 585.228 57.3653 584.716 57.664C584.204 57.952 583.558 58.096 582.78 58.096ZM592.774 58.096C591.921 58.096 591.26 57.8667 590.79 57.408C590.321 56.9493 590.086 56.2933 590.086 55.44V47.664H591.622V55.376C591.622 55.8347 591.734 56.1867 591.958 56.432C592.193 56.6773 592.524 56.8 592.95 56.8C593.43 56.8 593.83 56.6667 594.15 56.4L594.63 57.504C594.396 57.7067 594.113 57.856 593.782 57.952C593.462 58.048 593.126 58.096 592.774 58.096ZM588.646 50.784V49.52H594.054V50.784H588.646Z" fill="black"/>
<path d="M691.536 39V22.646L693.746 24.778H688.156V20.8H696.684V39H691.536ZM699.317 39V35.776L706.129 29.406C706.614 28.9553 706.97 28.5567 707.195 28.21C707.438 27.8633 707.594 27.5513 707.663 27.274C707.75 26.9793 707.793 26.7107 707.793 26.468C707.793 25.8787 707.594 25.4193 707.195 25.09C706.814 24.7607 706.233 24.596 705.453 24.596C704.794 24.596 704.179 24.7433 703.607 25.038C703.035 25.3327 702.567 25.7747 702.203 26.364L698.381 24.232C699.057 23.088 700.036 22.1693 701.319 21.476C702.602 20.7827 704.136 20.436 705.921 20.436C707.325 20.436 708.556 20.6613 709.613 21.112C710.67 21.5627 711.494 22.204 712.083 23.036C712.69 23.868 712.993 24.8473 712.993 25.974C712.993 26.5633 712.915 27.1527 712.759 27.742C712.603 28.314 712.3 28.9293 711.849 29.588C711.416 30.2293 710.766 30.9487 709.899 31.746L704.491 36.738L703.633 34.918H713.487V39H699.317ZM721.642 20.436C723.358 20.436 724.84 20.774 726.088 21.45C727.353 22.126 728.332 23.1313 729.026 24.466C729.736 25.7833 730.092 27.43 730.092 29.406C730.092 31.5207 729.676 33.3233 728.844 34.814C728.029 36.2873 726.894 37.414 725.438 38.194C723.999 38.974 722.318 39.364 720.394 39.364C719.388 39.364 718.418 39.2427 717.482 39C716.546 38.7747 715.74 38.454 715.064 38.038L716.936 34.346C717.456 34.71 717.993 34.9613 718.548 35.1C719.12 35.2213 719.7 35.282 720.29 35.282C721.694 35.282 722.812 34.8573 723.644 34.008C724.476 33.1587 724.892 31.9193 724.892 30.29C724.892 29.9953 724.892 29.692 724.892 29.38C724.892 29.0507 724.866 28.7213 724.814 28.392L726.088 29.458C725.776 30.0993 725.368 30.6367 724.866 31.07C724.363 31.5033 723.774 31.8327 723.098 32.058C722.422 32.2833 721.65 32.396 720.784 32.396C719.64 32.396 718.591 32.162 717.638 31.694C716.702 31.2087 715.948 30.5413 715.376 29.692C714.804 28.8253 714.518 27.8113 714.518 26.65C714.518 25.3847 714.838 24.2927 715.48 23.374C716.121 22.438 716.979 21.7187 718.054 21.216C719.128 20.696 720.324 20.436 721.642 20.436ZM721.98 24.102C721.494 24.102 721.07 24.1973 720.706 24.388C720.342 24.5787 720.047 24.8473 719.822 25.194C719.614 25.5233 719.51 25.9307 719.51 26.416C719.51 27.1093 719.735 27.664 720.186 28.08C720.654 28.496 721.26 28.704 722.006 28.704C722.508 28.704 722.95 28.6087 723.332 28.418C723.713 28.2273 724.008 27.9587 724.216 27.612C724.424 27.2653 724.528 26.858 724.528 26.39C724.528 25.9393 724.424 25.5493 724.216 25.22C724.008 24.8733 723.713 24.6047 723.332 24.414C722.95 24.206 722.5 24.102 721.98 24.102ZM694.688 58.128C693.835 58.128 693.045 57.9893 692.32 57.712C691.605 57.424 690.981 57.024 690.448 56.512C689.925 55.9893 689.515 55.3813 689.216 54.688C688.917 53.9947 688.768 53.232 688.768 52.4C688.768 51.568 688.917 50.8053 689.216 50.112C689.515 49.4187 689.931 48.816 690.464 48.304C690.997 47.7813 691.621 47.3813 692.336 47.104C693.061 46.816 693.851 46.672 694.704 46.672C695.568 46.672 696.363 46.8213 697.088 47.12C697.824 47.408 698.448 47.84 698.96 48.416L697.92 49.424C697.493 48.976 697.013 48.6453 696.48 48.432C695.947 48.208 695.376 48.096 694.768 48.096C694.139 48.096 693.552 48.2027 693.008 48.416C692.475 48.6293 692.011 48.928 691.616 49.312C691.221 49.696 690.912 50.1547 690.688 50.688C690.475 51.2107 690.368 51.7813 690.368 52.4C690.368 53.0187 690.475 53.5947 690.688 54.128C690.912 54.6507 691.221 55.104 691.616 55.488C692.011 55.872 692.475 56.1707 693.008 56.384C693.552 56.5973 694.139 56.704 694.768 56.704C695.376 56.704 695.947 56.5973 696.48 56.384C697.013 56.16 697.493 55.8187 697.92 55.36L698.96 56.368C698.448 56.944 697.824 57.3813 697.088 57.68C696.363 57.9787 695.563 58.128 694.688 58.128ZM706.173 58V56.208L706.093 55.872V52.816C706.093 52.1653 705.901 51.664 705.517 51.312C705.144 50.9493 704.578 50.768 703.821 50.768C703.32 50.768 702.829 50.8533 702.349 51.024C701.869 51.184 701.464 51.4027 701.133 51.68L700.493 50.528C700.93 50.176 701.453 49.9093 702.061 49.728C702.68 49.536 703.325 49.44 703.997 49.44C705.16 49.44 706.056 49.7227 706.685 50.288C707.314 50.8533 707.629 51.7173 707.629 52.88V58H706.173ZM703.389 58.096C702.76 58.096 702.205 57.9893 701.725 57.776C701.256 57.5627 700.893 57.2693 700.637 56.896C700.381 56.512 700.253 56.08 700.253 55.6C700.253 55.1413 700.36 54.7253 700.573 54.352C700.797 53.9787 701.154 53.68 701.645 53.456C702.146 53.232 702.818 53.12 703.661 53.12H706.349V54.224H703.725C702.957 54.224 702.44 54.352 702.173 54.608C701.906 54.864 701.773 55.1733 701.773 55.536C701.773 55.952 701.938 56.288 702.269 56.544C702.6 56.7893 703.058 56.912 703.645 56.912C704.221 56.912 704.722 56.784 705.149 56.528C705.586 56.272 705.901 55.8987 706.093 55.408L706.397 56.464C706.194 56.9653 705.837 57.3653 705.325 57.664C704.813 57.952 704.168 58.096 703.389 58.096ZM710.472 58V49.52H711.944V51.824L711.8 51.248C712.034 50.6613 712.429 50.2133 712.984 49.904C713.538 49.5947 714.221 49.44 715.032 49.44V50.928C714.968 50.9173 714.904 50.912 714.84 50.912C714.786 50.912 714.733 50.912 714.68 50.912C713.858 50.912 713.208 51.1573 712.728 51.648C712.248 52.1387 712.008 52.848 712.008 53.776V58H710.472ZM721.421 58.096C720.695 58.096 720.039 57.936 719.453 57.616C718.877 57.2853 718.418 56.8 718.077 56.16C717.746 55.52 717.581 54.72 717.581 53.76C717.581 52.8 717.751 52 718.093 51.36C718.445 50.72 718.909 50.24 719.485 49.92C720.071 49.6 720.717 49.44 721.421 49.44C722.253 49.44 722.989 49.6213 723.629 49.984C724.269 50.3467 724.775 50.8533 725.149 51.504C725.522 52.144 725.709 52.896 725.709 53.76C725.709 54.624 725.522 55.3813 725.149 56.032C724.775 56.6827 724.269 57.1893 723.629 57.552C722.989 57.9147 722.253 58.096 721.421 58.096ZM716.925 58V46.128H718.461V51.776L718.301 53.744L718.397 55.712V58H716.925ZM721.293 56.752C721.837 56.752 722.322 56.6293 722.749 56.384C723.186 56.1387 723.527 55.792 723.773 55.344C724.029 54.8853 724.157 54.3573 724.157 53.76C724.157 53.152 724.029 52.6293 723.773 52.192C723.527 51.744 723.186 51.3973 722.749 51.152C722.322 50.9067 721.837 50.784 721.293 50.784C720.759 50.784 720.274 50.9067 719.837 51.152C719.41 51.3973 719.069 51.744 718.813 52.192C718.567 52.6293 718.445 53.152 718.445 53.76C718.445 54.3573 718.567 54.8853 718.813 55.344C719.069 55.792 719.41 56.1387 719.837 56.384C720.274 56.6293 720.759 56.752 721.293 56.752ZM731.463 58.096C730.61 58.096 729.852 57.9093 729.191 57.536C728.53 57.1627 728.007 56.6507 727.623 56C727.239 55.3387 727.047 54.592 727.047 53.76C727.047 52.9173 727.239 52.1707 727.623 51.52C728.007 50.8693 728.53 50.3627 729.191 50C729.852 49.6267 730.61 49.44 731.463 49.44C732.306 49.44 733.058 49.6267 733.719 50C734.391 50.3627 734.914 50.8693 735.287 51.52C735.671 52.16 735.863 52.9067 735.863 53.76C735.863 54.6027 735.671 55.3493 735.287 56C734.914 56.6507 734.391 57.1627 733.719 57.536C733.058 57.9093 732.306 58.096 731.463 58.096ZM731.463 56.752C732.007 56.752 732.492 56.6293 732.919 56.384C733.356 56.1387 733.698 55.792 733.943 55.344C734.188 54.8853 734.311 54.3573 734.311 53.76C734.311 53.152 734.188 52.6293 733.943 52.192C733.698 51.744 733.356 51.3973 732.919 51.152C732.492 50.9067 732.007 50.784 731.463 50.784C730.919 50.784 730.434 50.9067 730.007 51.152C729.58 51.3973 729.239 51.744 728.983 52.192C728.727 52.6293 728.599 53.152 728.599 53.76C728.599 54.3573 728.727 54.8853 728.983 55.344C729.239 55.792 729.58 56.1387 730.007 56.384C730.434 56.6293 730.919 56.752 731.463 56.752ZM742.515 49.44C743.209 49.44 743.817 49.5733 744.339 49.84C744.873 50.1067 745.289 50.512 745.587 51.056C745.886 51.6 746.035 52.288 746.035 53.12V58H744.499V53.296C744.499 52.4747 744.297 51.856 743.891 51.44C743.497 51.024 742.937 50.816 742.211 50.816C741.667 50.816 741.193 50.9227 740.787 51.136C740.382 51.3493 740.067 51.664 739.843 52.08C739.63 52.496 739.523 53.0133 739.523 53.632V58H737.987V46.128H739.523V51.808L739.219 51.2C739.497 50.6453 739.923 50.2133 740.499 49.904C741.075 49.5947 741.747 49.44 742.515 49.44ZM749.09 61.2C748.684 61.2 748.29 61.1307 747.906 60.992C747.522 60.864 747.191 60.672 746.914 60.416L747.57 59.264C747.783 59.4667 748.018 59.6213 748.274 59.728C748.53 59.8347 748.802 59.888 749.09 59.888C749.463 59.888 749.772 59.792 750.018 59.6C750.263 59.408 750.492 59.0667 750.706 58.576L751.234 57.408L751.394 57.216L754.722 49.52H756.226L752.114 58.848C751.868 59.4453 751.591 59.9147 751.282 60.256C750.983 60.5973 750.652 60.8373 750.29 60.976C749.927 61.1253 749.527 61.2 749.09 61.2ZM751.106 58.272L747.234 49.52H748.834L752.13 57.072L751.106 58.272ZM760.929 58.096C760.107 58.096 759.371 57.9147 758.721 57.552C758.081 57.1893 757.574 56.6827 757.201 56.032C756.827 55.3813 756.641 54.624 756.641 53.76C756.641 52.896 756.827 52.144 757.201 51.504C757.574 50.8533 758.081 50.3467 758.721 49.984C759.371 49.6213 760.107 49.44 760.929 49.44C761.643 49.44 762.289 49.6 762.865 49.92C763.441 50.24 763.899 50.72 764.241 51.36C764.593 52 764.769 52.8 764.769 53.76C764.769 54.72 764.598 55.52 764.257 56.16C763.926 56.8 763.473 57.2853 762.897 57.616C762.321 57.936 761.665 58.096 760.929 58.096ZM761.057 56.752C761.59 56.752 762.07 56.6293 762.497 56.384C762.934 56.1387 763.275 55.792 763.521 55.344C763.777 54.8853 763.905 54.3573 763.905 53.76C763.905 53.152 763.777 52.6293 763.521 52.192C763.275 51.744 762.934 51.3973 762.497 51.152C762.07 50.9067 761.59 50.784 761.057 50.784C760.513 50.784 760.027 50.9067 759.601 51.152C759.174 51.3973 758.833 51.744 758.577 52.192C758.321 52.6293 758.193 53.152 758.193 53.76C758.193 54.3573 758.321 54.8853 758.577 55.344C758.833 55.792 759.174 56.1387 759.601 56.384C760.027 56.6293 760.513 56.752 761.057 56.752ZM763.953 58V55.712L764.049 53.744L763.889 51.776V46.128H765.425V58H763.953ZM768.331 58V49.52H769.803V51.824L769.659 51.248C769.894 50.6613 770.288 50.2133 770.843 49.904C771.398 49.5947 772.08 49.44 772.891 49.44V50.928C772.827 50.9173 772.763 50.912 772.699 50.912C772.646 50.912 772.592 50.912 772.539 50.912C771.718 50.912 771.067 51.1573 770.587 51.648C770.107 52.1387 769.867 52.848 769.867 53.776V58H768.331ZM779.423 58V56.208L779.343 55.872V52.816C779.343 52.1653 779.151 51.664 778.767 51.312C778.394 50.9493 777.828 50.768 777.071 50.768C776.57 50.768 776.079 50.8533 775.599 51.024C775.119 51.184 774.714 51.4027 774.383 51.68L773.743 50.528C774.18 50.176 774.703 49.9093 775.311 49.728C775.93 49.536 776.575 49.44 777.247 49.44C778.41 49.44 779.306 49.7227 779.935 50.288C780.564 50.8533 780.879 51.7173 780.879 52.88V58H779.423ZM776.639 58.096C776.01 58.096 775.455 57.9893 774.975 57.776C774.506 57.5627 774.143 57.2693 773.887 56.896C773.631 56.512 773.503 56.08 773.503 55.6C773.503 55.1413 773.61 54.7253 773.823 54.352C774.047 53.9787 774.404 53.68 774.895 53.456C775.396 53.232 776.068 53.12 776.911 53.12H779.599V54.224H776.975C776.207 54.224 775.69 54.352 775.423 54.608C775.156 54.864 775.023 55.1733 775.023 55.536C775.023 55.952 775.188 56.288 775.519 56.544C775.85 56.7893 776.308 56.912 776.895 56.912C777.471 56.912 777.972 56.784 778.399 56.528C778.836 56.272 779.151 55.8987 779.343 55.408L779.647 56.464C779.444 56.9653 779.087 57.3653 778.575 57.664C778.063 57.952 777.418 58.096 776.639 58.096ZM786.634 58.096C785.78 58.096 785.119 57.8667 784.65 57.408C784.18 56.9493 783.946 56.2933 783.946 55.44V47.664H785.482V55.376C785.482 55.8347 785.594 56.1867 785.818 56.432C786.052 56.6773 786.383 56.8 786.81 56.8C787.29 56.8 787.69 56.6667 788.01 56.4L788.49 57.504C788.255 57.7067 787.972 57.856 787.642 57.952C787.322 58.048 786.986 58.096 786.634 58.096ZM782.506 50.784V49.52H787.914V50.784H782.506ZM793.841 58.096C792.935 58.096 792.135 57.9093 791.441 57.536C790.759 57.1627 790.225 56.6507 789.841 56C789.468 55.3493 789.281 54.6027 789.281 53.76C789.281 52.9173 789.463 52.1707 789.825 51.52C790.199 50.8693 790.705 50.3627 791.345 50C791.996 49.6267 792.727 49.44 793.537 49.44C794.359 49.44 795.084 49.6213 795.713 49.984C796.343 50.3467 796.833 50.8587 797.185 51.52C797.548 52.1707 797.729 52.9333 797.729 53.808C797.729 53.872 797.724 53.9467 797.713 54.032C797.713 54.1173 797.708 54.1973 797.697 54.272H790.481V53.168H796.897L796.273 53.552C796.284 53.008 796.172 52.5227 795.937 52.096C795.703 51.6693 795.377 51.3387 794.961 51.104C794.556 50.8587 794.081 50.736 793.537 50.736C793.004 50.736 792.529 50.8587 792.113 51.104C791.697 51.3387 791.372 51.6747 791.137 52.112C790.903 52.5387 790.785 53.0293 790.785 53.584V53.84C790.785 54.4053 790.913 54.912 791.169 55.36C791.436 55.7973 791.804 56.1387 792.273 56.384C792.743 56.6293 793.281 56.752 793.889 56.752C794.391 56.752 794.844 56.6667 795.249 56.496C795.665 56.3253 796.028 56.0693 796.337 55.728L797.185 56.72C796.801 57.168 796.321 57.5093 795.745 57.744C795.18 57.9787 794.545 58.096 793.841 58.096ZM802.294 58.096C801.59 58.096 800.918 58 800.278 57.808C799.649 57.616 799.153 57.3813 798.79 57.104L799.43 55.888C799.793 56.1333 800.241 56.3413 800.774 56.512C801.308 56.6827 801.852 56.768 802.406 56.768C803.121 56.768 803.633 56.6667 803.942 56.464C804.262 56.2613 804.422 55.9787 804.422 55.616C804.422 55.3493 804.326 55.1413 804.134 54.992C803.942 54.8427 803.686 54.7307 803.366 54.656C803.057 54.5813 802.71 54.5173 802.326 54.464C801.942 54.4 801.558 54.3253 801.174 54.24C800.79 54.144 800.438 54.016 800.118 53.856C799.798 53.6853 799.542 53.456 799.35 53.168C799.158 52.8693 799.062 52.4747 799.062 51.984C799.062 51.472 799.206 51.024 799.494 50.64C799.782 50.256 800.188 49.9627 800.71 49.76C801.244 49.5467 801.873 49.44 802.598 49.44C803.153 49.44 803.713 49.5093 804.278 49.648C804.854 49.776 805.324 49.9627 805.686 50.208L805.03 51.424C804.646 51.168 804.246 50.992 803.83 50.896C803.414 50.8 802.998 50.752 802.582 50.752C801.91 50.752 801.409 50.864 801.078 51.088C800.748 51.3013 800.582 51.5787 800.582 51.92C800.582 52.208 800.678 52.432 800.87 52.592C801.073 52.7413 801.329 52.8587 801.638 52.944C801.958 53.0293 802.31 53.104 802.694 53.168C803.078 53.2213 803.462 53.296 803.846 53.392C804.23 53.4773 804.577 53.6 804.886 53.76C805.206 53.92 805.462 54.144 805.654 54.432C805.857 54.72 805.958 55.104 805.958 55.584C805.958 56.096 805.809 56.5387 805.51 56.912C805.212 57.2853 804.79 57.5787 804.246 57.792C803.702 57.9947 803.052 58.096 802.294 58.096Z" fill="black"/>
<path d="M78.66 23.3H85.38V25.9H78.66V23.3ZM78.9 31H75.66V17H86.24V19.6H78.9V31ZM88.4334 31V17H94.4934C95.7468 17 96.8268 17.2067 97.7334 17.62C98.6401 18.02 99.3401 18.6 99.8334 19.36C100.327 20.12 100.573 21.0267 100.573 22.08C100.573 23.12 100.327 24.02 99.8334 24.78C99.3401 25.5267 98.6401 26.1 97.7334 26.5C96.8268 26.9 95.7468 27.1 94.4934 27.1H90.2334L91.6734 25.68V31H88.4334ZM97.3334 31L93.8334 25.92H97.2934L100.833 31H97.3334ZM91.6734 26.04L90.2334 24.52H94.3134C95.3134 24.52 96.0601 24.3067 96.5534 23.88C97.0468 23.44 97.2934 22.84 97.2934 22.08C97.2934 21.3067 97.0468 20.7067 96.5534 20.28C96.0601 19.8533 95.3134 19.64 94.3134 19.64H90.2334L91.6734 18.1V26.04ZM109.94 31.24C108.834 31.24 107.807 31.06 106.86 30.7C105.927 30.34 105.114 29.8333 104.42 29.18C103.74 28.5267 103.207 27.76 102.82 26.88C102.447 26 102.26 25.04 102.26 24C102.26 22.96 102.447 22 102.82 21.12C103.207 20.24 103.747 19.4733 104.44 18.82C105.134 18.1667 105.947 17.66 106.88 17.3C107.814 16.94 108.827 16.76 109.92 16.76C111.027 16.76 112.04 16.94 112.96 17.3C113.894 17.66 114.7 18.1667 115.38 18.82C116.074 19.4733 116.614 20.24 117 21.12C117.387 21.9867 117.58 22.9467 117.58 24C117.58 25.04 117.387 26.0067 117 26.9C116.614 27.78 116.074 28.5467 115.38 29.2C114.7 29.84 113.894 30.34 112.96 30.7C112.04 31.06 111.034 31.24 109.94 31.24ZM109.92 28.48C110.547 28.48 111.12 28.3733 111.64 28.16C112.174 27.9467 112.64 27.64 113.04 27.24C113.44 26.84 113.747 26.3667 113.96 25.82C114.187 25.2733 114.3 24.6667 114.3 24C114.3 23.3333 114.187 22.7267 113.96 22.18C113.747 21.6333 113.44 21.16 113.04 20.76C112.654 20.36 112.194 20.0533 111.66 19.84C111.127 19.6267 110.547 19.52 109.92 19.52C109.294 19.52 108.714 19.6267 108.18 19.84C107.66 20.0533 107.2 20.36 106.8 20.76C106.4 21.16 106.087 21.6333 105.86 22.18C105.647 22.7267 105.54 23.3333 105.54 24C105.54 24.6533 105.647 25.26 105.86 25.82C106.087 26.3667 106.394 26.84 106.78 27.24C107.18 27.64 107.647 27.9467 108.18 28.16C108.714 28.3733 109.294 28.48 109.92 28.48ZM120.015 31V17H122.695L128.655 26.88H127.235L133.095 17H135.755L135.795 31H132.755L132.735 21.66H133.295L128.615 29.52H127.155L122.375 21.66H123.055V31H120.015ZM148.661 31.24C147.688 31.24 146.721 31.1133 145.761 30.86C144.814 30.5933 144.001 30.22 143.321 29.74L144.601 27.26C145.134 27.6467 145.748 27.9533 146.441 28.18C147.148 28.4067 147.861 28.52 148.581 28.52C149.394 28.52 150.034 28.36 150.501 28.04C150.968 27.72 151.201 27.2733 151.201 26.7C151.201 26.34 151.108 26.02 150.921 25.74C150.734 25.46 150.401 25.2467 149.921 25.1C149.454 24.9533 148.794 24.88 147.941 24.88H144.361L145.081 17H153.621V19.6H146.241L147.921 18.12L147.421 23.74L145.741 22.26H148.701C150.088 22.26 151.201 22.4533 152.041 22.84C152.894 23.2133 153.514 23.7267 153.901 24.38C154.288 25.0333 154.481 25.7733 154.481 26.6C154.481 27.4267 154.274 28.1933 153.861 28.9C153.448 29.5933 152.808 30.16 151.941 30.6C151.088 31.0267 149.994 31.24 148.661 31.24ZM162.056 31.24C160.776 31.24 159.662 30.9733 158.716 30.44C157.782 29.9067 157.062 29.1267 156.556 28.1C156.049 27.0733 155.796 25.8067 155.796 24.3C155.796 22.6867 156.096 21.32 156.696 20.2C157.309 19.08 158.149 18.2267 159.216 17.64C160.296 17.0533 161.536 16.76 162.936 16.76C163.682 16.76 164.396 16.84 165.076 17C165.756 17.16 166.342 17.4 166.836 17.72L165.636 20.1C165.249 19.8333 164.836 19.6533 164.396 19.56C163.956 19.4533 163.496 19.4 163.016 19.4C161.802 19.4 160.842 19.7667 160.136 20.5C159.429 21.2333 159.076 22.32 159.076 23.76C159.076 24 159.076 24.2667 159.076 24.56C159.089 24.8533 159.129 25.1467 159.196 25.44L158.296 24.6C158.549 24.08 158.876 23.6467 159.276 23.3C159.676 22.94 160.149 22.6733 160.696 22.5C161.256 22.3133 161.869 22.22 162.536 22.22C163.442 22.22 164.256 22.4 164.976 22.76C165.696 23.12 166.269 23.6267 166.696 24.28C167.136 24.9333 167.356 25.7 167.356 26.58C167.356 27.5267 167.116 28.3533 166.636 29.06C166.169 29.7533 165.536 30.2933 164.736 30.68C163.949 31.0533 163.056 31.24 162.056 31.24ZM161.876 28.82C162.329 28.82 162.729 28.74 163.076 28.58C163.436 28.4067 163.716 28.16 163.916 27.84C164.116 27.52 164.216 27.1533 164.216 26.74C164.216 26.1 163.996 25.5933 163.556 25.22C163.129 24.8333 162.556 24.64 161.836 24.64C161.356 24.64 160.936 24.7333 160.576 24.92C160.216 25.0933 159.929 25.34 159.716 25.66C159.516 25.9667 159.416 26.3267 159.416 26.74C159.416 27.14 159.516 27.5 159.716 27.82C159.916 28.1267 160.196 28.3733 160.556 28.56C160.916 28.7333 161.356 28.82 161.876 28.82ZM82.42 55.24C81.3133 55.24 80.2933 55.0667 79.36 54.72C78.44 54.36 77.6333 53.8533 76.94 53.2C76.26 52.5467 75.7267 51.78 75.34 50.9C74.9667 50.02 74.78 49.0533 74.78 48C74.78 46.9467 74.9667 45.98 75.34 45.1C75.7267 44.22 76.2667 43.4533 76.96 42.8C77.6533 42.1467 78.4667 41.6467 79.4 41.3C80.3333 40.94 81.36 40.76 82.48 40.76C83.72 40.76 84.8333 40.9667 85.82 41.38C86.82 41.7933 87.66 42.3933 88.34 43.18L86.26 45.1C85.7533 44.5667 85.2 44.1733 84.6 43.92C84 43.6533 83.3467 43.52 82.64 43.52C81.96 43.52 81.34 43.6267 80.78 43.84C80.22 44.0533 79.7333 44.36 79.32 44.76C78.92 45.16 78.6067 45.6333 78.38 46.18C78.1667 46.7267 78.06 47.3333 78.06 48C78.06 48.6533 78.1667 49.2533 78.38 49.8C78.6067 50.3467 78.92 50.8267 79.32 51.24C79.7333 51.64 80.2133 51.9467 80.76 52.16C81.32 52.3733 81.9333 52.48 82.6 52.48C83.24 52.48 83.86 52.38 84.46 52.18C85.0733 51.9667 85.6667 51.6133 86.24 51.12L88.08 53.46C87.32 54.0333 86.4333 54.4733 85.42 54.78C84.42 55.0867 83.42 55.24 82.42 55.24ZM85.12 53.04V47.78H88.08V53.46L85.12 53.04ZM94.0697 46.64H100.81V49.16H94.0697V46.64ZM94.3097 52.4H101.93V55H91.0897V41H101.67V43.6H94.3097V52.4ZM104.508 55V41H107.748V52.36H114.768V55H104.508ZM114.59 57L121.19 38.16H123.97L117.37 57H114.59ZM124.742 55V41H131.102C132.622 41 133.962 41.2933 135.122 41.88C136.282 42.4533 137.189 43.26 137.842 44.3C138.495 45.34 138.822 46.5733 138.822 48C138.822 49.4133 138.495 50.6467 137.842 51.7C137.189 52.74 136.282 53.5533 135.122 54.14C133.962 54.7133 132.622 55 131.102 55H124.742ZM127.982 52.34H130.942C131.875 52.34 132.682 52.1667 133.362 51.82C134.055 51.46 134.589 50.9533 134.962 50.3C135.349 49.6467 135.542 48.88 135.542 48C135.542 47.1067 135.349 46.34 134.962 45.7C134.589 45.0467 134.055 44.5467 133.362 44.2C132.682 43.84 131.875 43.66 130.942 43.66H127.982V52.34ZM139.23 55L145.47 41H148.67L154.93 55H151.53L146.41 42.64H147.69L142.55 55H139.23ZM142.35 52L143.21 49.54H150.41L151.29 52H142.35ZM159.003 55V49.28L159.743 51.24L153.583 41H157.023L161.743 48.86H159.763L164.503 41H167.683L161.523 51.24L162.243 49.28V55H159.003Z" fill="white"/>
<path d="M74 33.5H173.41V34.5H74V33.5ZM74 57.5H167.383V58.5H74V57.5Z" fill="white"/>
<defs>
<filter id="filter0_d_47_385" x="0" y="0" width="221" height="74" filterUnits="userSpaceOnUse" color-interpolation-filters="sRGB">
<feFlood flood-opacity="0" result="BackgroundImageFix"/>
<feColorMatrix in="SourceAlpha" type="matrix" values="0 0 0 0 0 0 0 0 0 0 0 0 0 0 0 0 0 0 127 0" result="hardAlpha"/>
<feOffset/>
<feGaussianBlur stdDeviation="3.5"/>
<feComposite in2="hardAlpha" operator="out"/>
<feColorMatrix type="matrix" values="0 0 0 0 1 0 0 0 0 0.66 0 0 0 0 0 0 0 0 0.54 0"/>
<feBlend mode="normal" in2="BackgroundImageFix" result="effect1_dropShadow_47_385"/>
<feBlend mode="normal" in="SourceGraphic" in2="effect1_dropShadow_47_385" result="shape"/>
</filter>
</defs>
</svg>
